<svg width="123" height="155" viewBox="0 0 123 155" fill="none" xmlns="http://www.w3.org/2000/svg">
<path d="M24.8 12.8C31.6 16 36.1 19.9 36.9 20.5C36.6 18.7 35.2 10.2 34.3 5C38.2 7.7 47.6 14.2 50.6 16.3C51.8 12.5 56.2 0 56.2 0C56.2 0 64 12.5 65.2 14.6C66.9 13 76.1 2.6 78.5 0C79 5.9 79.4 14.5 79.6 15.7C80.1 15.1 83.7 10.1 89.6 5.4C87 10.5 85.8 17.5 85.2 23.2C79.3 21.5 73.1 20.6 66.8 20.6C54.6 20.6 43 23.8 33 29.5C31.3 24 28.6 17.2 24.8 12.8ZM118.6 120.2L113.2 114.2C111.7 130.3 103.7 144.1 89.2 153.7L86.9 145C74.5 153.9 53.4 159.6 35.2 149.4C37.5 137.9 39.4 126.2 35.2 112.2C25.1 127.7 16.2 133.9 16.2 133.9C9.40001 122.4 10 99.5 12 92.7L0.700012 96.2C0.700012 88.5 6.30001 72.2 14.3 63L7.40001 61.9C12.2 52.1 19.3 43.7 28.2 37.2C25.5 41.6 25.5 51.8 33.2 55.7C29.9 50 29.6 42.9 32.9 39.1C36.4 35.3 42.1 36.7 45.7 39.6C44.6 36.4 41.3 32.4 36.7 32.1C45.7 27.4 56.2 24.9 67 24.9C69.1 24.9 71.1 25.1 73 25.2C76.2 26.4 80.8 30.9 83 33.8C83 33.8 83.2 30.5 81.3 26.6C93.1 29.5 98.8 34.3 101.1 36.6C101.6 41.7 103.1 44.7 105.2 49.6C101.4 45.4 91.8 38.4 87.1 36.8C87.1 36.8 86.6 41.2 85.1 43.3C75.9 36.7 71.5 35 71.5 35C61.3 36 55 40 51.4 43L54.4 45.6C48.4 47.4 44.4 52.7 44.4 52.7C44.4 52.9 49.8 53.6 49.8 53.6C49.8 53.6 49.2 59.9 57.2 63.9C64 67.2 73.6 63.1 82.8 66.8C76.8 59.9 72.7 56.7 72.7 56.7C72.7 56.7 70.3 56.2 68.6 56.2C66.5 56.2 63.3 56.7 60 55.3C58.3 54.7 56.4 53.5 55 52.6C55 52.6 59.2 48.2 65.4 47.3C65.4 47.3 71 48.8 75.4 52.1C78.3 49.2 81.4 49.4 81.4 49.4C81.4 49.4 78.4 52.3 79.3 55.6C83.7 59.5 88.5 65.1 88.5 65.1C93.3 62.4 103.9 63 106.1 65.6C103.4 62 99.3 59.1 96.3 56.6C96 55.2 92.5 50.6 92.1 50.1C92.1 50.1 95.3 51.2 98.1 53.6C98.9 52.4 100.5 51.2 102.5 50.7C104.6 52.5 105.1 55.2 104.9 55.7C104 56.9 102.9 57.4 102.9 57.4L108 63L108.5 58.9C120.4 75.8 126.9 95.5 118.6 120.2ZM96.2 83.7V75C96.2 75 92.3 73.8 88.1 70.5C79.7 71.7 69.6 80.2 69.6 80.2C69.6 80.2 73.1 86.7 76.8 93.8C83.4 94.5 93.2 86.3 96.2 83.7ZM104.6 99.5C104.6 99.5 104 95.9 101 92.6L94.5 92.8C94.5 92.8 85.6 100.3 80.3 100.5C80.3 100.5 83.3 106.1 84.8 108.9C87.8 108.3 92.9 105.9 95.1 103.5C95.1 103.5 96.5 108 96.2 113.3C99.2 111.4 103.3 106.8 104.6 99.5ZM107.3 70.7C104 73.4 101.3 75.1 101.3 75.1V83.8C103.7 86.4 106 88.6 107.8 92.5C111.1 86.7 110.3 78 107.3 70.7Z" fill="#360D3A"/>
</svg>
